<svg xmlns="http://www.w3.org/2000/svg" width="55.766" height="26.406" viewBox="0 0 55.766 26.406"><defs><style>.a{fill:#2e2d2c;}.a,.b{fill-rule:evenodd;}.b{fill:#e25b25;}</style></defs><g transform="translate(-12212.871 -1408.503)"><path class="a" d="M12220.866,1426.673h-6.075a.728.728,0,0,0-.48.222l-1.219,1.219a.827.827,0,0,0-.221.461v4.432a.725.725,0,0,0,.221.462l1.219,1.218a.825.825,0,0,0,.48.222h6.075a.292.292,0,0,0,.3-.3v-1.533a.293.293,0,0,0-.3-.3h-5.8v-3.951h5.816a.292.292,0,0,0,.295-.3v-1.532a.316.316,0,0,0-.313-.333"/><path class="a" d="M12229.36,1426.876a.879.879,0,0,0-.518-.221h-4.875a.817.817,0,0,0-.517.221l-1.218,1.219a.875.875,0,0,0-.223.517v4.34a.81.81,0,0,0,.223.517l1.218,1.218a.855.855,0,0,0,.517.2h4.875a.9.9,0,0,0,.518-.2l1.219-1.218a.874.874,0,0,0,.222-.517v-4.34a.818.818,0,0,0-.222-.517Zm-.758,5.873h-4.394V1428.8h4.376v3.952Z"/><path class="a" d="M12239.886,1426.673h-1.588a.293.293,0,0,0-.3.3v5.78h-3.914v-5.8a.292.292,0,0,0-.3-.295h-1.588a.291.291,0,0,0-.295.295v5.983a.816.816,0,0,0,.221.517l1.219,1.219a.858.858,0,0,0,.518.2h4.395a.9.9,0,0,0,.518-.2l1.219-1.219a.854.854,0,0,0,.2-.517v-5.983a.321.321,0,0,0-.314-.277"/><path class="a" d="M12247.531,1432.195a.691.691,0,0,0,.276-.167l1.22-1.218a.885.885,0,0,0,.221-.517v-1.681a.816.816,0,0,0-.221-.517l-1.22-1.219a.878.878,0,0,0-.517-.221h-5.743a.292.292,0,0,0-.3.295v7.645a.293.293,0,0,0,.3.3h1.588a.292.292,0,0,0,.295-.3v-2.364h1.607l1.662,2.419a.67.67,0,0,0,.479.241h1.92c.167,0,.223-.111.131-.241Zm-4.081-3.38h3.6v1.367h-3.6Z"/><path class="a" d="M12265.812,1434.65l-1.7-2.455a.691.691,0,0,0,.276-.167l1.22-1.218a.86.86,0,0,0,.2-.517v-1.681a.906.906,0,0,0-.2-.517l-1.22-1.219a.878.878,0,0,0-.517-.221h-5.743a.291.291,0,0,0-.295.295v7.645a.292.292,0,0,0,.295.3h1.588a.293.293,0,0,0,.3-.3v-2.364h1.606l1.662,2.419a.672.672,0,0,0,.479.241h1.921c.166,0,.24-.111.129-.241m-5.779-5.835h3.6v1.367h-3.6Z"/><path class="a" d="M12256.561,1426.673h-6.148a.292.292,0,0,0-.3.3v1.551a.291.291,0,0,0,.3.295h1.975v3.934h-1.975a.291.291,0,0,0-.3.295v1.551a.292.292,0,0,0,.3.3h6.148a.293.293,0,0,0,.3-.3v-1.551a.292.292,0,0,0-.3-.295h-1.976V1428.8h1.976a.292.292,0,0,0,.3-.3v-1.551a.278.278,0,0,0-.3-.277"/><path class="b" d="M12212.871,1419.416a1.247,1.247,0,0,0,.369.905l3.287,3.139a1.4,1.4,0,0,0,.96.388h10.452a.641.641,0,0,0,.646-.646v-3.509a.654.654,0,0,0-.646-.646h-10.157v-5.761h10.175a.642.642,0,0,0,.646-.647v-3.49a.64.64,0,0,0-.646-.646H12217.5a1.339,1.339,0,0,0-.96.388l-3.287,3.139a1.289,1.289,0,0,0-.369.905v6.481Z"/><path class="a" d="M12268.028,1423.866l.608.61v1.606l-.608.61h-1.607l-.609-.61v-1.606l.609-.61Zm-.148,2.438.388-.388v-1.292l-.388-.388h-1.292l-.388.388v1.292l.388.388Z"/><path class="a" d="M12267.88,1425.842l-.258-.369a.069.069,0,0,0,.037-.018l.184-.185a.137.137,0,0,0,.037-.074v-.259a.13.13,0,0,0-.037-.073l-.184-.185a.145.145,0,0,0-.074-.037h-.868a.039.039,0,0,0-.037.037v1.145a.04.04,0,0,0,.037.037h.24a.041.041,0,0,0,.037-.037v-.351h.24l.258.369a.1.1,0,0,0,.074.037h.3c.018,0,.018-.018.018-.037m-.886-.868h.535v.2h-.535Z"/></g></svg>