<svg xmlns="http://www.w3.org/2000/svg" width="56" height="9.05" viewBox="0 0 56 9.05"><defs><style>.a{fill:#211e1f;stroke:#211e1f;stroke-miterlimit:3.864;stroke-width:0;fill-rule:evenodd;}</style></defs><g transform="translate(-12512.754 -1417.181)"><path class="a" d="M12553.691,1417.66c-.106-.076-.086-.138.044-.138h3.916a.726.726,0,0,1,.413.157l2.975,2.738a.255.255,0,0,0,.325,0l2.97-2.738a.729.729,0,0,1,.414-.157h3.894c.131,0,.15.062.044.138l-5.669,3.947a.144.144,0,0,0,0,.25l5.476,3.82c.105.076.086.138-.044.138h-4.131a.715.715,0,0,1-.413-.158l-2.521-2.394a.257.257,0,0,0-.326,0l-2.583,2.4a.726.726,0,0,1-.414.156h-4.132c-.13,0-.149-.063-.044-.139l5.44-3.818a.145.145,0,0,0,0-.251Zm-13.954,4.021c0-2.486,3.228-4.5,7.209-4.5s7.209,2.014,7.209,4.5-3.228,4.5-7.209,4.5S12539.737,1424.166,12539.737,1421.681Zm3.209,0c0-1.7,1.791-3.084,4-3.084s4,1.381,4,3.084-1.791,3.084-4,3.084S12542.946,1423.384,12542.946,1421.681Zm-13.4-4.159h9.709a.238.238,0,0,1,.236.237v.819a.237.237,0,0,1-.236.236h-7.361a.236.236,0,0,0-.236.236v1.736a.237.237,0,0,0,.236.237h6.069a.237.237,0,0,1,.236.236v.819a.237.237,0,0,1-.236.236h-6.069a.237.237,0,0,0-.236.237v1.736a.236.236,0,0,0,.236.236h7.361a.237.237,0,0,1,.236.236v.819a.238.238,0,0,1-.236.237h-10.569a.238.238,0,0,1-.237-.237v-7.819a.238.238,0,0,1,.237-.237Zm-10,3.584h7.209c.459,0,.418.229.418.625,0,2.485-3.228,4.5-7.209,4.5s-7.209-2.015-7.209-4.5,3.228-4.5,7.209-4.5a8.675,8.675,0,0,1,6.232,2.236c.152.17,0,.18-.118.18h-2.933c-.261,0-.616-.291-.835-.413a4.815,4.815,0,0,0-2.347-.587c-2.21,0-4,1.381-4,3.084s1.791,3.084,4,3.084a3.91,3.91,0,0,0,3.906-2.417h-4.318c-.187,0-.224-.224-.224-.224v-.87S12519.384,1421.106,12519.545,1421.106Z"/></g></svg>