<svg xmlns="http://www.w3.org/2000/svg" width="55.998" height="27.4" viewBox="0 0 55.998 27.4"><defs><style>.a{fill:#fff;}.b{fill:#a40716;}</style></defs><g transform="translate(-12212.755 -1880.006)"><rect class="a" width="44.378" height="13.19" transform="translate(12218.504 1883.253)"/><path class="b" d="M12246.23,1901.794a23.381,23.381,0,0,0-5.419,1.935,27.156,27.156,0,0,0-11.028-2.438,28.064,28.064,0,0,0-12.113,2.825l-4.915-24.11h33.476m0,21.788,0-21.788-23.491,6.037h-2.98v8.824h5.96v-2.09h-2.979Zm8.166,7.469c-1.355,0-1.664-.58-1.664-2.206h6.076c0-3.908-.93-5.534-4.412-5.534-3.793,0-4.8,1.316-4.8,4.722,0,3.328,1.393,4.915,4.6,4.915,3.174,0,4.335-1.162,4.412-2.98h-2.786C12232.337,1893.164,12232.066,1893.512,12230.905,1893.512Zm-1.664-3.947c0-1.316.271-2.051,1.548-2.051,1.238,0,1.548.58,1.548,2.051Zm9.4-3.522h-3.251l3.367,8.824h3.676l3.444-8.824h-3.173l-2.051,5.767Z"/><path class="b" d="M12246.191,1880.006m0,0h22.562l-5.3,24.11a20.6,20.6,0,0,0-11.261-2.864,32.079,32.079,0,0,0-6,.542m.542-15.789v8.862h2.9v-8.862Zm5.107.58-.155.89c.931-.58,1.317-1.083,1.317-1.741a1.092,1.092,0,0,0-1.239-1.123,1.064,1.064,0,0,0-1.2,1.045C12250.564,1886.469,12251.106,1886.585,12251.841,1886.585Zm4.142,5.495h-3.136c.039,2.129,1.162,2.98,4.567,2.98,3.174,0,4.451-.7,4.451-2.9,0-3.483-5.883-1.742-5.883-3.831,0-.5.581-.929,1.354-.929.813,0,1.122.348,1.316,1.083h2.979c-.039-1.857-1.123-2.709-4.1-2.709-3.1,0-4.527.852-4.527,2.787,0,3.831,5.882,1.78,5.882,3.947,0,.658-.349.968-1.2.968C12256.679,1893.474,12256.06,1893.087,12255.982,1892.08Zm2.4,11.92a1.7,1.7,0,0,1,0,3.406,1.694,1.694,0,0,1-1.7-1.7A1.718,1.718,0,0,1,12258.382,1904Zm1.433,1.7a1.433,1.433,0,0,0-2.864,0,1.453,1.453,0,0,0,1.432,1.431A1.429,1.429,0,0,0,12259.814,1905.7Zm-2.014.851v-1.7h.465c.465,0,.813.116.813.542,0,.194-.116.348-.387.5l.31.658h-.31l-.271-.5h-.271v.5Zm.891-1.161c0-.116-.155-.193-.542-.193v.425C12258.42,1905.625,12258.691,1905.625,12258.691,1905.393Z"/></g></svg>