<svg xmlns="http://www.w3.org/2000/svg" width="56" height="32.153" viewBox="0 0 56 32.153"><defs><style>.a{fill-rule:evenodd;}</style></defs><g transform="translate(-12212.754 -933.629)"><path class="a" d="M12252.635,933.63a38.045,38.045,0,1,0-17.061,1.792l-3.08,7.476a7.954,7.954,0,0,0-3.854-.962,7.891,7.891,0,1,0,5.143,13.944l-.02-2.53-6.149.066,3.052-7.383,6.6-.065a15.971,15.971,0,0,1,15.372-12.338Zm-8.932,11.442a1.648,1.648,0,0,0-1.848,1.885l.01.794a2.491,2.491,0,0,0,1.2,2.044c.747.513,1.12.97,1.12,1.353l.01.971c0,.326-.141.485-.42.485s-.431-.159-.431-.485l-.009-1.223-1.437.019.009,1.222a1.862,1.862,0,1,0,3.724-.037l-.009-1.073a2.447,2.447,0,0,0-1.2-2.007c-.747-.523-1.12-.961-1.12-1.307l-.01-.765c0-.327.131-.485.42-.485s.43.158.439.476l.009,1.232,1.428-.019-.009-1.223a1.645,1.645,0,0,0-1.876-1.857Zm9.193-.084a1.642,1.642,0,0,0-1.839,1.885l.046,5.171a1.858,1.858,0,1,0,3.716-.037l-.047-5.171a1.639,1.639,0,0,0-1.876-1.848Zm-4.414.168-1.887.019.084,8.633,1.438-.01-.038-3.63h.094a3.207,3.207,0,0,0,.858-.1,1.694,1.694,0,0,0,1.223-1.782l-.009-1.279q-.029-1.848-1.764-1.848Zm9.2-.084-1.885.019.084,8.633,1.428-.01-.037-3.714h.074l1.018,3.705,1.567-.019-1.418-3.957a1.46,1.46,0,0,0,.925-1.53l-.011-1.279c-.009-1.241-.588-1.867-1.745-1.848Zm6.142-.065-3.725.037.011,1.372,1.138-.009.075,7.261,1.437-.019-.074-7.261,1.147-.009Zm-10.91,1.353c.28,0,.42.159.429.485l.047,5.18c.01.327-.14.486-.42.495s-.429-.159-.429-.485l-.056-5.18c0-.327.14-.486.419-.495Zm-4.545.177c.289,0,.429.159.429.486l.02,1.278a.44.44,0,0,1-.271.458,1.683,1.683,0,0,1-.308.037h-.178l-.019-2.249Zm9.2-.093c.279,0,.429.159.429.485l.019,1.279a.444.444,0,0,1-.271.457,1.072,1.072,0,0,1-.308.028h-.168l-.019-2.249Z"/></g></svg>