<svg xmlns="http://www.w3.org/2000/svg" width="128" height="62.629" viewBox="0 0 128 62.629"><defs><style>.a{fill:#fff;}.b{fill:#a40716;}</style></defs><g transform="translate(-4913.078 -2902.814)"><rect class="a" width="101.439" height="30.149" transform="translate(4926.22 2910.234)"/><path class="b" d="M4989.6,2952.616a53.447,53.447,0,0,0-12.384,4.422,62.109,62.109,0,0,0-25.211-5.572,64.158,64.158,0,0,0-27.688,6.457l-11.234-55.109H4989.6m0,49.8,0-49.8-53.694,13.8h-6.812v20.169h13.623V2932H4935.9Zm18.664,17.072c-3.1,0-3.8-1.327-3.8-5.042h13.888c0-8.934-2.123-12.649-10.085-12.649-8.669,0-10.969,3.007-10.969,10.792,0,7.607,3.185,11.234,10.527,11.234,7.254,0,9.908-2.654,10.084-6.811h-6.369C4957.838,2932.89,4957.219,2933.685,4954.565,2933.685Zm-3.8-9.022c0-3.008.619-4.689,3.538-4.689,2.831,0,3.538,1.327,3.538,4.689Zm21.495-8.05h-7.431l7.7,20.169h8.4l7.873-20.169h-7.254l-4.688,13.18Z"/><path class="b" d="M4989.506,2902.814m0,0h51.572l-12.119,55.109c-7.961-4.6-15.214-6.546-25.741-6.546a73.383,73.383,0,0,0-13.712,1.239m1.239-36.092v20.258h6.635v-20.258Zm11.677,1.327-.354,2.035c2.123-1.327,3.008-2.477,3.008-3.981,0-1.68-1.15-2.565-2.831-2.565s-2.743.973-2.743,2.388C4999.5,2917.586,5000.741,2917.851,5002.422,2917.851Zm9.465,12.561h-7.165c.088,4.866,2.654,6.812,10.438,6.812,7.254,0,10.173-1.593,10.173-6.635,0-7.961-13.446-3.98-13.446-8.757,0-1.15,1.327-2.123,3.1-2.123,1.857,0,2.565.8,3.008,2.477h6.811c-.089-4.246-2.566-6.192-9.377-6.192-7.076,0-10.349,1.946-10.349,6.368,0,8.758,13.446,4.07,13.446,9.024,0,1.5-.8,2.211-2.743,2.211C5013.479,2933.6,5012.064,2932.713,5011.887,2930.412Zm5.485,27.245a3.893,3.893,0,0,1,0,7.786,3.871,3.871,0,0,1-3.893-3.893A3.928,3.928,0,0,1,5017.372,2957.657Zm3.273,3.893a3.274,3.274,0,0,0-6.546,0,3.323,3.323,0,0,0,3.273,3.273A3.266,3.266,0,0,0,5020.645,2961.55Zm-4.6,1.947V2959.6h1.062c1.061,0,1.857.265,1.857,1.239,0,.442-.264.795-.884,1.15l.708,1.5h-.708l-.62-1.151h-.619v1.151Zm2.035-2.654c0-.266-.354-.443-1.239-.443v.973C5017.459,2961.373,5018.079,2961.373,5018.079,2960.843Z"/></g></svg>