<svg xmlns="http://www.w3.org/2000/svg" width="199.319" height="51.368" viewBox="0 0 199.319 51.368"><defs><style>.a{fill:#3c3c3b;}</style></defs><g transform="translate(-4835.745 -64.316)"><path class="a" d="M4899.7,81.371a4.849,4.849,0,0,1,3.4-.8,7.811,7.811,0,0,1,4.211,1.834l.489.467,3.915-4.546-.547-.413a15.1,15.1,0,0,0-8.579-2.64c-5.307,0-9.576,3.256-9.931,7.573-.381,4.638,3.876,6.055,7.295,7.192l.272.091c2.476.8,4.22,1.474,4.111,2.805-.1,1.237-1.7,2.044-3.881,1.966-2.36-.089-5.13-1.186-6.051-2.394l-.5-.657-3.659,4.6.382.4c1.879,2,5.975,3.442,9.74,3.442,5.658,0,10.035-3.281,10.406-7.8.416-5.062-4.062-6.452-7.326-7.466l-.2-.065c-2.615-.831-4.2-1.423-4.094-2.647a1.363,1.363,0,0,1,.55-.94"/><path class="a" d="M4928.242,75.271a11.006,11.006,0,0,0-6.506,2.125l1.074-13.08h-6.355l-2.916,35.518h6.355l1.161-14.146a5.342,5.342,0,0,1,5.359-4.659,4.328,4.328,0,0,1,3.249,1.29,3.825,3.825,0,0,1,.951,2.99l-1.193,14.525h6.4l1.233-15.013a8.391,8.391,0,0,0-8.813-9.55"/><path class="a" d="M4951.931,93.769a2.676,2.676,0,0,1-2.139.9,2.041,2.041,0,0,1-1.564-.54,2.844,2.844,0,0,1-.481-2.189l.907-11.049h6.435l.424-5.165h-6.481l.637-7.759h-6.355l-.457,5.571a2.4,2.4,0,0,1-2.372,2.188h-.592l-.424,5.165h2.784l-.9,10.944a7.775,7.775,0,0,0,1.836,6.085,8.029,8.029,0,0,0,6.109,2.37,8.529,8.529,0,0,0,6.04-2.186l.407-.39-3.285-4.493Z"/><path class="a" d="M4858.6,75.733l-.509,4.642a8.3,8.3,0,0,1-8.033,7.239,6.372,6.372,0,0,1-6.447-7.24l.509-4.641h-6.3l-.509,4.641a11.907,11.907,0,0,0,12.06,13.544,14.674,14.674,0,0,0,7.47-2.1l-.23,2.1a8.3,8.3,0,0,1-8.033,7.241,6.371,6.371,0,0,1-6.447-7.241h-6.3a11.907,11.907,0,0,0,12.06,13.545,15.5,15.5,0,0,0,15.028-13.545l1.993-18.185Z"/><path class="a" d="M4844.949,109.507a3.534,3.534,0,0,0-3.427,3.088,2.715,2.715,0,0,0,2.75,3.089,3.535,3.535,0,0,0,3.427-3.089,2.715,2.715,0,0,0-2.75-3.088"/><path class="a" d="M4853.442,109.507a3.533,3.533,0,0,0-3.427,3.088,2.716,2.716,0,0,0,2.75,3.089,3.534,3.534,0,0,0,3.427-3.089,2.714,2.714,0,0,0-2.75-3.088"/><path class="a" d="M5022.753,80.375a8.3,8.3,0,0,1-8.033,7.239,6.371,6.371,0,0,1-6.447-7.24l.508-4.641h-6.3l-.508,4.641a11.906,11.906,0,0,0,12.06,13.544,14.67,14.67,0,0,0,7.47-2.1l-.23,2.1a8.3,8.3,0,0,1-8.034,7.241,6.371,6.371,0,0,1-6.446-7.241h-6.305a11.908,11.908,0,0,0,12.06,13.545,15.5,15.5,0,0,0,15.029-13.545l.423-3.864,1.57-14.321h-6.3Z"/><path class="a" d="M5030.916,75.733l-.039.335h.582l-.2,1.686h.4l.2-1.686h.582l.039-.335Z"/><path class="a" d="M5034.651,75.733l-.88,1.007-.629-.991-.011-.017h-.41l-.238,2.022h.408l.171-1.451.64,1.039.889-1.034-.17,1.445h.4l.238-2.022Z"/><path class="a" d="M4873.257,84.856a5.509,5.509,0,0,1,5.491-3.964c2.622,0,4.125,1.333,4.477,3.964Zm5.755-9.585c-6.905,0-11.957,5.024-12.571,12.5-.314,3.814.647,7.145,2.7,9.378a10.414,10.414,0,0,0,7.918,3.139,11.831,11.831,0,0,0,10.441-5.757l-4.35-3.237c-2.065,2.824-3.443,3.327-5.548,3.327-3.024,0-4.7-1.548-4.994-4.6h15.959l.132-.468a8.1,8.1,0,0,0,.229-1.537c.343-4.176-.583-7.585-2.679-9.86a9.522,9.522,0,0,0-7.241-2.885"/><path class="a" d="M4964.026,84.856a5.508,5.508,0,0,1,5.49-3.964c2.622,0,4.126,1.333,4.478,3.964Zm5.755-9.585c-6.9,0-11.958,5.024-12.572,12.5-.313,3.814.647,7.145,2.705,9.378a10.411,10.411,0,0,0,7.918,3.139,11.829,11.829,0,0,0,10.44-5.757l-4.35-3.237c-2.065,2.824-3.442,3.327-5.547,3.327-3.024,0-4.7-1.548-5-4.6h15.96l.132-.468a8.183,8.183,0,0,0,.229-1.537c.343-4.176-.584-7.585-2.68-9.86a9.518,9.518,0,0,0-7.24-2.885"/><path class="a" d="M4989.517,77.956l-.008-2.228h-5.843l-1.979,24.106h6.356l1.053-12.822c.236-2.878,2.568-5.983,5.923-5.983.064,0,.188,0,.188,0a7.147,7.147,0,0,1,3.421.779l.591-6.067a10.811,10.811,0,0,0-3.559-.473,9.18,9.18,0,0,0-6.143,2.685"/></g></svg>