<svg xmlns="http://www.w3.org/2000/svg" width="55.671" height="29.678" viewBox="0 0 55.671 29.678"><defs><style>.a{fill:#1d1d1b;fill-rule:evenodd;}</style></defs><g transform="translate(-12812.918 -1406.867)"><path class="a" d="M12837.347,1421.893h-2.029v-8.96h4.946c2.1,0,4.363,1.26,4.363,3.78v.98h-2.1l.022-.677a1.936,1.936,0,0,0-1.959-2.053h-3.244v6.93Z"/><path class="a" d="M12831.631,1434.725v-.023a2.073,2.073,0,0,1-1.867,1.05,1.674,1.674,0,1,1,0-3.29,2.1,2.1,0,0,1,1.728.817v-.024l.77-.443a3.146,3.146,0,0,0-2.5-1.143,2.471,2.471,0,1,0,0,4.853,3.059,3.059,0,0,0,2.614-1.283l-.747-.514Z"/><path class="a" d="M12865.72,1431.692h-4.854v.957h1.96v3.9h.934v-3.9h1.96v-.957Z"/><path class="a" d="M12837.674,1436.545h1.33l-2.45-2.45,2.4-2.4h-1.354l-1.7,1.727h0l-.536.513h-.14v-2.24h-.957v4.853h.957v-2.287h.187l2.263,2.287Z"/><path class="a" d="M12857.017,1431.692l-2.566-.023v4.876h.957v-2.076h1.306l.3.28,1.773,1.8h1.353l-2.076-2.076h.094a1.389,1.389,0,1,0,0-2.777h-1.144Zm0,1.82h-1.609v-.863h2.775a.418.418,0,0,1,.42.42.423.423,0,0,1-.42.443h-1.166Z"/><path class="a" d="M12849.83,1431.669a2.481,2.481,0,1,0,2.939,2.45,2.723,2.723,0,0,0-2.939-2.45Zm0,.793a1.674,1.674,0,1,1-1.983,1.657,1.845,1.845,0,0,1,1.983-1.657Z"/><path class="a" d="M12843.227,1431.692l-2.52-.023v4.876h.933v-2.076h2.754a1.389,1.389,0,1,0,0-2.777h-1.167Zm0,1.82h-1.587v-.863h2.754a.424.424,0,0,1,.443.42.428.428,0,0,1-.443.443h-1.167Z"/><path class="a" d="M12815.485,1431.692l-2.567-.023v4.876h.98v-2.076h1.283l.3.28,1.772,1.8h1.354l-2.076-2.076h.117a1.389,1.389,0,0,0,0-2.777h-1.167Zm0,1.82h-1.587v-.863h2.754a.418.418,0,0,1,.419.42.423.423,0,0,1-.419.443h-1.167Z"/><path class="a" d="M12839.331,1427.189a10.161,10.161,0,1,1,10.149-10.15,10.192,10.192,0,0,1-10.149,10.15Zm0-18.479a8.318,8.318,0,1,0,8.306,8.329,8.349,8.349,0,0,0-8.306-8.329Z"/><path class="a" d="M12822.508,1431.669a2.481,2.481,0,1,0,2.94,2.45,2.722,2.722,0,0,0-2.94-2.45Zm0,4.083a1.674,1.674,0,1,0-1.982-1.633,1.844,1.844,0,0,0,1.982,1.633Z"/><path class="a" d="M12867.656,1431.949h-.4v.98h.163v-.42h.093c.07,0,.094,0,.141.047a2.049,2.049,0,0,1,.163.209l.069.164h.21l-.139-.187c-.117-.21-.164-.233-.21-.256h0a.3.3,0,0,0,.28-.28.283.283,0,0,0-.095-.187.388.388,0,0,0-.279-.07Zm.933.466a.921.921,0,1,1-.933-.909.916.916,0,0,1,.933.909Zm-.933-.769a.77.77,0,1,1,0,1.539.77.77,0,0,1,0-1.539Zm0,.723h-.233v-.3h.233c.094.024.187.047.187.164s-.093.14-.187.14Z"/></g></svg>