<svg xmlns="http://www.w3.org/2000/svg" width="56" height="19.192" viewBox="0 0 56 19.192"><defs><style>.a{fill:#1d1d1b;}</style></defs><g transform="translate(-12512.754 -1884.11)"><path class="a" d="M12567.647,1901.952v.373c.235.008.354-.065.354-.219,0-.138-.088-.207-.261-.207-.071,0-.1.014-.094.053Zm.69.864v.029h-.248l-.354-.467-.088.006v.3c-.013.094.032.14.135.136v.029h-.419v-.029c.1.008.145-.044.13-.154v-.657c.011-.094-.032-.14-.13-.136v-.024h.419c.253.005.381.091.385.261q0,.213-.272.254l.309.385a.173.173,0,0,0,.135.071Zm.2-.381a.737.737,0,1,1,0-.184.725.725,0,0,1,0,.184Zm.211-.182a.948.948,0,1,0,0,.2.987.987,0,0,0,0-.2Zm-1.869-8.619h-3.265a1.929,1.929,0,0,0-2.025-1.564c-1.559,0-1.911.6-1.9,1.041.008.345.271.784.988,1.112,1.377.63,3.726.861,5.2,1.918,1.913,1.368,1.665,4.28.04,5.718a6.867,6.867,0,0,1-4.546,1.328q-4.961-.213-5.573-4.277h3.436c.333,1.831,2.553,2.038,3.937,1.3.7-.371.98-.975.336-1.561a9.986,9.986,0,0,0-2.542-.978c-2.229-.559-3.686-1.267-4.371-2.329a3.812,3.812,0,0,1,.878-4.66,6.517,6.517,0,0,1,4.036-1.185q4.756.072,5.37,4.135Zm-20.9-3.874,4.6,7.118v-7.118h3.338v13.118h-3.338l-4.6-7.139v7.139h-3.644V1889.76Zm-14.71,13.118h-3.938l5.075-13.118h3.214l5.075,13.118h-4l-.669-1.729h-4.084l-.669,1.729Zm4.237-4.505-1.478-4.7-1.51,4.7Zm-8.813-14.263h41.256v3.476h-38.239l-5.917,15.292h-4l-7.037-18.768h4.356l4.7,12.627,4.888-12.627Z"/></g></svg>